<svg width="270.624" height="85.937" viewBox="0 0 270.624 85.937" xmlns="http://www.w3.org/2000/svg"><g id="svgGroup" stroke-linecap="round" fill-rule="evenodd" font-size="9pt" stroke="#FFF" stroke-width="0.25mm" fill="#FFF" style="stroke:#FFF;stroke-width:0.25mm;fill:#FFF"><path d="M 25.72 29.262 L 25.05 29.074 A 473.151 473.151 0 0 1 22.244 28.261 C 19.017 27.312 16.34 26.441 14.233 25.366 A 17.611 17.611 0 0 1 13.65 25.055 A 11.804 11.804 0 0 1 11.422 23.482 A 7.162 7.162 0 0 1 8.997 17.902 A 8.596 8.596 0 0 1 12.543 10.903 A 12.719 12.719 0 0 1 14.135 9.855 A 16.902 16.902 0 0 1 17.827 8.363 C 18.799 8.092 19.807 7.893 20.816 7.774 A 18.249 18.249 0 0 1 22.947 7.646 C 29.859 7.646 34.469 11.726 36.199 16.02 L 44.755 16.02 C 42.974 8.064 35.708 0.004 23.143 0.004 A 27.136 27.136 0 0 0 11.699 2.414 A 18.051 18.051 0 0 0 0.507 18.741 A 13.436 13.436 0 0 0 5.252 29.258 A 20.929 20.929 0 0 0 8.352 31.517 C 13.02 34.331 18.9 35.854 23.627 37.079 L 24.368 37.266 A 117.605 117.605 0 0 1 27.085 38 C 32.214 39.472 37.786 41.784 38.439 47.527 A 10.157 10.157 0 0 1 38.503 48.676 A 4.507 4.507 0 0 0 38.503 48.694 A 4.495 4.495 0 0 1 38.503 48.712 A 9.246 9.246 0 0 1 36.797 54.081 A 9.338 9.338 0 0 1 35.464 55.585 C 33.49 57.402 30.666 58.487 27.228 58.765 A 22.542 22.542 0 0 1 25.41 58.837 C 14.803 58.837 10.501 52.094 8.876 48.041 A 19.169 19.169 0 0 1 8.678 47.526 L 0 47.526 C 1.789 56.192 8.954 65.672 23.933 65.932 A 36.496 36.496 0 0 0 24.565 65.937 A 29.692 29.692 0 0 0 34.344 64.394 C 38.325 63.005 41.515 60.727 43.671 57.758 A 16.789 16.789 0 0 0 46.809 47.728 A 16.963 16.963 0 0 0 46.053 42.496 C 45.083 39.486 43.165 37.054 40.211 35.037 A 32.648 32.648 0 0 0 32.645 31.402 C 30.999 30.82 29.303 30.303 27.606 29.807 A 439.225 439.225 0 0 0 25.72 29.262 Z M 107.714 36.455 L 107.714 65.937 L 115.021 65.937 C 115.021 65.937 115.021 38.741 115.021 36.59 A 202.121 202.121 0 0 0 115.021 36.455 C 115.028 30.298 120.025 25.301 126.182 25.293 A 11.172 11.172 0 0 1 137.334 36.455 L 137.334 65.937 L 144.641 65.937 L 144.641 36.455 A 18.488 18.488 0 0 0 126.183 17.987 C 115.996 17.999 107.726 26.267 107.714 36.455 Z M 164.707 0 L 157.785 0 L 157.785 17.943 L 149.1 17.943 L 149.1 24.866 L 157.785 24.866 L 157.785 50.058 A 15.896 15.896 0 0 0 173.663 65.937 L 178.294 65.937 L 178.294 59.014 L 173.663 59.014 C 168.722 59.009 164.712 54.999 164.707 50.058 A 1001.828 1001.828 0 0 0 164.707 49.805 C 164.707 45.973 164.707 0 164.707 0 Z M 95.621 17.987 L 77.063 57.817 L 73.21 66.096 L 63.968 85.937 L 71.672 85.937 L 77.063 74.364 L 80.916 66.086 L 103.326 17.987 L 95.621 17.987 Z M 270.397 17.987 L 261.893 17.987 L 248.463 36.077 L 244.211 41.81 L 226.3 65.937 L 234.813 65.937 L 248.463 47.543 L 252.714 41.81 L 270.397 17.987 Z M 182.917 42.833 L 182.917 42.85 L 182.917 65.937 L 189.717 65.937 L 189.717 42.565 C 189.717 32.768 197.688 24.794 207.488 24.794 L 209.928 24.794 L 209.928 17.987 C 209.928 17.987 207.931 17.987 207.773 17.987 A 1.071 1.071 0 0 0 207.763 17.987 A 24.858 24.858 0 0 0 182.917 42.833 Z M 214.4 65.938 L 221.662 65.938 L 221.662 18.017 L 214.4 18.017 L 214.4 65.938 Z M 75.25 56.972 L 75.96 55.449 L 58.506 17.987 L 50.8 17.987 L 72.107 63.727 L 75.25 56.972 Z M 253.961 43.488 L 250.069 48.735 L 249.707 49.221 L 262.112 65.937 L 270.624 65.937 L 253.961 43.488 Z M 246.857 34.885 L 247.218 34.399 L 235.032 17.987 L 226.528 17.987 L 242.964 40.132 L 246.857 34.885 Z M 178.251 17.943 L 172.024 17.943 L 164.707 24.866 L 178.251 24.866 L 178.251 17.943 Z M 189.717 17.987 L 182.917 17.987 A 620.679 620.679 0 0 0 182.917 18.038 C 182.914 18.793 182.882 27.636 182.915 28.045 A 0.034 0.034 0 0 0 182.917 28.059 A 29.272 29.272 0 0 1 189.717 20.246 L 189.717 17.987 Z M 214.4 7.262 L 221.662 7.262 L 221.662 0 L 214.4 0 L 214.4 7.262 Z M 115 17.952 L 107.714 17.952 A 420.632 420.632 0 0 0 107.714 17.988 C 107.712 18.513 107.685 24.674 107.712 24.958 A 0.021 0.021 0 0 0 107.714 24.968 A 22.02 22.02 0 0 1 112.9 19.368 A 21.84 21.84 0 0 1 115 17.952 Z" vector-effect="non-scaling-stroke"/></g></svg>